<svg width="20" height="28" viewBox="0 0 20 28" fill="none" xmlns="http://www.w3.org/2000/svg">
<path d="M9.99948 0.667969C4.67418 0.667969 0.341797 5.00037 0.341797 10.3256C0.341797 16.9344 8.98441 26.6364 9.35241 27.0461C9.69801 27.431 10.3015 27.4304 10.6465 27.0461C11.0144 26.6364 19.6571 16.9344 19.6571 10.3256C19.6569 5.00037 15.3247 0.667969 9.99948 0.667969ZM9.99948 15.1846C7.32017 15.1846 5.14049 13.0049 5.14049 10.3256C5.14049 7.6463 7.32022 5.46661 9.99948 5.46661C12.6787 5.46661 14.8584 7.64636 14.8584 10.3256C14.8584 13.0049 12.6787 15.1846 9.99948 15.1846Z" fill="black"/>
</svg>
