<svg width="33" height="32" viewBox="0 0 33 32" fill="none" xmlns="http://www.w3.org/2000/svg">
<path d="M23.1667 27.9984C20.9617 27.9964 18.7911 27.4515 16.8467 26.4118L16.2467 26.0784C12.101 23.8495 8.70225 20.4507 6.47333 16.3051L6.14 15.7051C5.07309 13.7496 4.50951 11.5593 4.5 9.33174V8.4384C4.49944 7.72768 4.78261 7.04614 5.28667 6.54507L7.54 4.29174C7.75884 4.0712 8.06775 3.96491 8.37595 4.00408C8.68415 4.04326 8.95664 4.22347 9.11333 4.49174L12.1133 9.6384C12.4167 10.1623 12.3291 10.8247 11.9 11.2517L9.38 13.7718C9.17072 13.9787 9.12196 14.2984 9.26 14.5584L9.72667 15.4384C11.4027 18.543 13.9524 21.088 17.06 22.7584L17.94 23.2384C18.2 23.3764 18.5197 23.3276 18.7267 23.1184L21.2467 20.5984C21.6736 20.1694 22.3361 20.0818 22.86 20.3851L28.0067 23.3851C28.2749 23.5418 28.4552 23.8143 28.4943 24.1224C28.5335 24.4307 28.4272 24.7396 28.2067 24.9584L25.9533 27.2118C25.4523 27.7158 24.7707 27.999 24.06 27.9984H23.1667Z" fill="black"/>
</svg>
